<svg width="31" height="30" viewBox="0 0 31 30" fill="none" xmlns="http://www.w3.org/2000/svg">
<circle cx="15.3057" cy="15.001" r="14.5" stroke="white" stroke-opacity="0.5"/>
<rect x="7.30566" y="7.00098" width="16" height="16" rx="4" fill="white"/>
<path d="M18.3286 14.1383C18.3634 14.1371 18.3981 14.1428 18.4305 14.1551C18.463 14.1673 18.4927 14.1859 18.5177 14.2097C18.5427 14.2335 18.5627 14.262 18.5763 14.2935C18.5899 14.325 18.5969 14.3589 18.5969 14.3931C18.5969 14.4273 18.5899 14.4612 18.5763 14.4927C18.5627 14.5242 18.5427 14.5527 18.5177 14.5765C18.4927 14.6003 18.463 14.6188 18.4305 14.6311C18.3981 14.6434 18.3634 14.6491 18.3286 14.6479H17.6082V15.1022H18.3286C18.3636 15.1005 18.3986 15.1058 18.4314 15.1179C18.4642 15.1299 18.4943 15.1483 18.5196 15.1721C18.545 15.1958 18.5652 15.2244 18.579 15.2561C18.5928 15.2877 18.5999 15.3218 18.5999 15.3563C18.5999 15.3907 18.5928 15.4248 18.579 15.4565C18.5652 15.4882 18.545 15.5167 18.5196 15.5405C18.4943 15.5643 18.4642 15.5827 18.4314 15.5947C18.3986 15.6067 18.3636 15.6121 18.3286 15.6104H17.3501C17.2817 15.6101 17.2161 15.5833 17.1678 15.5357C17.1195 15.488 17.0924 15.4235 17.0923 15.3563V13.4302C17.0923 13.29 17.2078 13.1749 17.3501 13.1749H18.3304C18.3969 13.1783 18.4596 13.2067 18.5054 13.2543C18.5512 13.3018 18.5766 13.3648 18.5764 13.4303C18.5762 13.4958 18.5504 13.5587 18.5043 13.606C18.4582 13.6533 18.3954 13.6813 18.3289 13.6843H17.6085V14.1386L18.3286 14.1383ZM16.7473 15.356C16.7467 15.4234 16.7191 15.4879 16.6704 15.5355C16.6218 15.583 16.556 15.6097 16.4874 15.6098C16.4467 15.6102 16.4066 15.6012 16.3701 15.5837C16.3336 15.5662 16.3017 15.5406 16.277 15.5089L15.2745 14.1682V15.3557C15.2745 15.4231 15.2472 15.4877 15.1988 15.5353C15.1503 15.583 15.0846 15.6098 15.016 15.6098C14.9475 15.6098 14.8818 15.583 14.8333 15.5353C14.7849 15.4877 14.7576 15.4231 14.7576 15.3557V13.4296C14.7576 13.3209 14.83 13.2234 14.9341 13.1885C14.9598 13.1796 14.9869 13.1752 15.0142 13.1755C15.0943 13.1755 15.1682 13.2182 15.2178 13.2782L16.2283 14.6219V13.4296C16.2283 13.2894 16.3438 13.1743 16.4867 13.1743C16.6297 13.1743 16.7467 13.2894 16.7467 13.4296L16.7473 15.356ZM14.3893 15.356C14.3889 15.4235 14.3614 15.4882 14.3127 15.5358C14.264 15.5835 14.198 15.6101 14.1293 15.6101C14.0611 15.6095 13.9959 15.5825 13.9479 15.5349C13.8998 15.4873 13.8728 15.423 13.8728 15.356V13.4299C13.8728 13.2897 13.9883 13.1746 14.1312 13.1746C14.2738 13.1746 14.3896 13.2897 14.3896 13.4299L14.3893 15.356ZM13.3769 15.6101H12.3965C12.3279 15.6099 12.2621 15.5831 12.2134 15.5356C12.1647 15.488 12.1371 15.4235 12.1366 15.356V13.4299C12.1366 13.2897 12.2536 13.1746 12.3965 13.1746C12.5394 13.1746 12.6549 13.2897 12.6549 13.4299V15.1019H13.3769C13.4454 15.1019 13.5111 15.1287 13.5596 15.1763C13.6081 15.224 13.6353 15.2886 13.6353 15.356C13.6353 15.4234 13.6081 15.488 13.5596 15.5356C13.5111 15.5833 13.4454 15.6101 13.3769 15.6101ZM20.233 14.3194C20.233 12.1507 18.0206 10.3857 15.305 10.3857C12.5893 10.3857 10.377 12.1507 10.377 14.3194C10.377 16.2627 12.1304 17.8905 14.498 18.1997C14.6585 18.2327 14.8765 18.3038 14.9329 18.438C14.9825 18.5591 14.9649 18.7469 14.9489 18.875L14.8815 19.2866C14.862 19.408 14.782 19.7648 15.3114 19.547C15.8424 19.3293 18.1524 17.9005 19.187 16.7297C19.8945 15.968 20.233 15.1855 20.233 14.3194Z" fill="#1F1F1F"/>
</svg>
