<svg width="28" height="23" viewBox="0 0 28 23" fill="none" xmlns="http://www.w3.org/2000/svg">
<path d="M5.81055 5.02071H26.8628L24.1917 14.3679C23.9904 15.0715 23.5655 15.6905 22.9812 16.1311C22.3968 16.5717 21.6849 16.81 20.953 16.81H9.66901C8.83949 16.8104 8.03897 16.5048 7.42083 15.9516C6.80269 15.3984 6.41042 14.6366 6.31917 13.8121L4.96846 1.65234H1.6001" stroke="black" stroke-width="1.68418" stroke-linecap="round" stroke-linejoin="round"/>
<path d="M9.17896 22.7047C10.1091 22.7047 10.8631 21.9506 10.8631 21.0205C10.8631 20.0903 10.1091 19.3363 9.17896 19.3363C8.24882 19.3363 7.49478 20.0903 7.49478 21.0205C7.49478 21.9506 8.24882 22.7047 9.17896 22.7047Z" fill="black"/>
<path d="M22.6524 22.7047C23.5825 22.7047 24.3366 21.9506 24.3366 21.0205C24.3366 20.0903 23.5825 19.3363 22.6524 19.3363C21.7222 19.3363 20.9682 20.0903 20.9682 21.0205C20.9682 21.9506 21.7222 22.7047 22.6524 22.7047Z" fill="black"/>
</svg>
