<svg width="50" height="50" viewBox="0 0 50 50" fill="none" xmlns="http://www.w3.org/2000/svg">
<path fill-rule="evenodd" clip-rule="evenodd" d="M13.0952 8.3335H36.9048C38.1677 8.3335 39.3789 8.8352 40.2719 9.72823C41.165 10.6213 41.6667 11.8325 41.6667 13.0954V36.9049C41.6667 38.1679 41.165 39.3791 40.2719 40.2721C39.3789 41.1651 38.1677 41.6668 36.9048 41.6668H13.0952C11.8323 41.6668 10.6211 41.1651 9.72807 40.2721C8.83504 39.3791 8.33334 38.1679 8.33334 36.9049V13.0954C8.33334 11.8325 8.83504 10.6213 9.72807 9.72823C10.6211 8.8352 11.8323 8.3335 13.0952 8.3335Z" stroke="black" stroke-width="2.38095" stroke-linecap="round" stroke-linejoin="round"/>
<path d="M25 27.381C23.685 27.381 22.619 26.3151 22.619 25.0001C22.619 23.6851 23.685 22.6191 25 22.6191C26.315 22.6191 27.381 23.6851 27.381 25.0001C27.381 26.3151 26.315 27.381 25 27.381Z" fill="black"/>
<path d="M15.4762 27.381C16.7912 27.381 17.8572 26.3151 17.8572 25.0001C17.8572 23.6851 16.7912 22.6191 15.4762 22.6191C14.1612 22.6191 13.0952 23.6851 13.0952 25.0001C13.0952 26.3151 14.1612 27.381 15.4762 27.381Z" fill="black"/>
<path d="M34.5238 27.381C35.8388 27.381 36.9048 26.3151 36.9048 25.0001C36.9048 23.6851 35.8388 22.6191 34.5238 22.6191C33.2088 22.6191 32.1429 23.6851 32.1429 25.0001C32.1429 26.3151 33.2088 27.381 34.5238 27.381Z" fill="black"/>
</svg>
