<svg width="50" height="50" viewBox="0 0 50 50" fill="none" xmlns="http://www.w3.org/2000/svg">
<path d="M17.8571 17.8573V41.2311M41.6667 17.8573H8.33334M41.6619 36.9002L41.6381 13.0906C41.6368 11.8285 41.1346 10.6185 40.2417 9.72654C39.3488 8.83454 38.1383 8.3335 36.8762 8.3335H13.0667C11.8653 8.33312 10.7082 8.78684 9.82727 9.60373C8.94636 10.4206 8.40677 11.5403 8.31667 12.7383L8.30238 13.1002L8.32619 36.9097C8.32746 38.1718 8.82971 39.3818 9.72261 40.2738C10.6155 41.1658 11.826 41.6668 13.0881 41.6668H36.8976C38.099 41.6672 39.2561 41.2135 40.137 40.3966C41.0179 39.5797 41.5575 38.4601 41.6476 37.2621L41.6619 36.9002Z" stroke="black" stroke-width="2.38095" stroke-linecap="round" stroke-linejoin="round"/>
</svg>
