<?xml version="1.0" encoding="utf-8"?><svg id="kv_new_0313" image-rendering="optimizeQuality" baseProfile="basic" version="1.1" preserveAspectRatio="xMidYMid slice" x="0px" y="0px" width="2560" height="1500" xmlns="http://www.w3.org/2000/svg" viewBox="0 0 2560 1500" xmlns:xlink="http://www.w3.org/1999/xlink"><defs><filter id="filter1" filterUnits="objectBoundingBox" width="100%" height="100%" x="0%" y="0%"><feColorMatrix type="matrix" in="SourceGraphic" values="1 0 0 0 1 0 1 0 0 1 0 0 1 0 1 0 0 0 9999999999999.99 0" result="colorTrans"/></filter><g id="naname" overflow="visible"><path fill="#FFF" stroke="none" d="M544.4 22.8Q523.5 8.1 498.75 2.8 474.85 -2.35 450.65 1.9 426.45 6.1 405.7 19.05 384.25 32.5 369.55 53.4L22.8 547.35Q8.1 568.25 2.8 593 -2.35 616.9 1.9 641.1 6.1 665.3 19.05 686 32.5 707.5 53.4 722.15 74.3 736.85 99.05 742.15 122.95 747.3 147.15 743.1 171.35 738.85 192.05 725.9 213.55 712.45 228.2 691.55L575 197.6Q589.65 176.7 595 151.95 600.1 128.05 595.9 103.85 591.65 79.65 578.7 58.95 565.3 37.45 544.4 22.8Z"/></g><g id="Symbol-4" overflow="visible"><path fill="#FFF" stroke="none" d="M883.05 22.8Q862.15 8.15 837.4 2.8 813.5 -2.3 789.3 1.9 765.1 6.15 744.4 19.1 722.9 32.5 708.25 53.4L22.85 1029.7Q8.15 1050.6 2.85 1075.35 -2.3 1099.25 1.95 1123.45 6.15 1147.65 19.1 1168.35 32.55 1189.85 53.45 1204.5 74.35 1219.2 99.1 1224.5 123 1229.65 147.2 1225.45 171.4 1221.2 192.1 1208.25 213.6 1194.8 228.25 1173.9L913.65 197.65Q928.35 176.75 933.65 152 938.8 128.1 934.6 103.9 930.35 79.7 917.4 58.95 903.95 37.5 883.05 22.8Z"/></g><g id="Symbol-5" overflow="visible"><path fill="#FFF" stroke="none" d="M2078.65 76.65Q2068.65 54.15 2050.6 36.75 2032.45 19.4 2008.95 9.85 1984.65 0 1958.05 0L125.55 .05Q100 .05 76.7 9.9 54.15 19.45 36.8 36.8 19.45 54.15 9.9 76.65 .05 99.95 .05 125.5L.05 125.55Q.05 151.1 9.9 174.4 19.45 196.9 36.8 214.3 54.15 231.65 76.7 241.2 100 251.05 125.55 251.05L1958.05 251Q1984.65 251 2008.95 241.15 2032.45 231.65 2050.6 214.25 2068.65 196.9 2078.65 174.4 2088.9 151.1 2088.9 125.55L2088.9 125.5Q2088.9 99.95 2078.65 76.65Z"/></g><g id="stone" overflow="visible"><path fill="#EFEFEF" stroke="none" d="M240.15 76.6Q230.65 54.1 213.3 36.75 196 19.45 173.5 9.9 150.25 .05 124.75 .05 99.25 .05 76 9.9 53.5 19.45 36.15 36.75 18.85 54.1 9.3 76.6 -.55 99.85 -.55 125.35 -.55 128.15 -.45 130.15 -.05 131.2 .85 130.9 1.3 130.8 1.65 130.45L6.35 126.85Q6.4 132.5 6.35 132.65 2.75 134.95 1.5 139.2 .75 141.95 1 145 4.5 167.15 15.55 186.75 26.3 205.85 42.95 220.25 59.75 234.75 80.35 242.55 101.7 250.65 124.75 250.65 147.65 250.65 168.9 242.65 189.4 234.9 206.15 220.6 222.75 206.35 233.6 187.4 244.65 168 248.3 146L248.2 146.2Q248.65 143.95 248.2 141.15 247.3 135.55 243 132.8 242.9 132.65 243 127L247.7 130.6 248.6 131.1Q249.6 131.3 249.95 129.8 250 127.964 250 125.35 250 99.85 240.15 76.6M169.9 18.5Q190.7 27.3 206.75 43.35 222.8 59.4 231.6 80.2 240.7 101.75 240.7 125.35 240.7 129.025 240.45 132.65 240.515 132.676 240.55 132.7L240.45 133.7 240.4 133.65Q239.082 152.781 231.6 170.5 222.8 191.3 206.75 207.35 190.7 223.4 169.9 232.2 148.35 241.35 124.75 241.35 101.15 241.35 79.6 232.2 58.8 223.4 42.75 207.35 26.7 191.3 17.9 170.5 10.417 152.780 9.1 133.65 9.071 133.686 9.05 133.7L8.95 132.65Q8.983 132.625 9 132.6 8.8 129.000 8.8 125.35 8.8 101.75 17.9 80.2 26.7 59.4 42.75 43.35 58.8 27.3 79.6 18.5 101.15 9.4 124.75 9.4 148.35 9.4 169.9 18.5M125.4 242.15Q131.6 242.15 138.1 241.45L139.4 249.2Q132.45 249.95 125.4 249.95 117.9 249.95 110.1 249L111.4 241.3Q118.6 242.15 125.4 242.15M237.65 132.15Q233.95 130.25 229.4 128.65 223.15 126.55 216 125.3 206.5 123.6 196.15 123.6L163.65 123.6Q161.65 123.45 158.8 124.1 153.2 125.4 148.95 129.65 144.15 134.45 136.35 136.5 130.95 137.95 124.75 137.95 118.55 137.95 113.1 136.5 105.35 134.45 100.55 129.65 96.3 125.4 90.65 124.1 88.9 123.65 87.2 123.6L53.3 123.6Q42.95 123.6 33.5 125.3 26.3 126.55 20.05 128.65 15.5 130.25 11.85 132.15 10.042 133.078 9.1 133.65 10.417 152.780 17.9 170.5 26.7 191.3 42.75 207.35 58.8 223.4 79.6 232.2 101.15 241.35 124.75 241.35 148.35 241.35 169.9 232.2 190.7 223.4 206.75 207.35 222.8 191.3 231.6 170.5 239.082 152.781 240.4 133.65 239.459 133.079 237.65 132.15M206.75 43.35Q190.7 27.3 169.9 18.5 148.35 9.4 124.75 9.4 101.15 9.4 79.6 18.5 58.8 27.3 42.75 43.35 26.7 59.4 17.9 80.2 8.8 101.75 8.8 125.35 8.8 129.000 9 132.6 9.914 131.966 11.6 131.1 15.05 129.35 19.7 127.75 25.95 125.6 33.25 124.3 42.85 122.6 53.3 122.6L85.75 122.6Q88.2 122.4 91.1 123.1 96.85 124.5 101.25 128.9 105.85 133.55 113.45 135.55 118.7 136.95 124.75 136.95 130.75 136.95 136.05 135.55 143.6 133.55 148.2 128.9 152.65 124.5 158.35 123.1 161.3 122.4 163.75 122.6L196.15 122.6Q206.65 122.6 216.2 124.3 223.5 125.6 229.8 127.75 234.4 129.35 237.85 131.15 239.535 132.016 240.45 132.65 240.7 129.025 240.7 125.35 240.7 101.75 231.6 80.2 222.8 59.4 206.75 43.35M141.8 37.45Q143.25 37.75 144 38.05L148.55 40.15Q146.55 44.5 142.75 45.8 141.55 46.2 140.35 46.25L110.1 46.2Q108.65 46.4 106.75 45.8 102.95 44.5 100.95 40.15L105.5 38.05 107.7 37.45Q110.55 36.85 113.85 36.85L135.65 36.85Q138.95 36.85 141.8 37.45M157.9 40.6Q160.1 41.75 159.95 41.9 137.1 32.2 111.15 36.1 103.05 37.3 95.5 39.75 89.6 41.9 89.5 41.9L91.65 40.65Q94.5 39.2 98.15 37.95 109.75 33.95 124.75 33.95 139.85 33.95 151.45 37.85 155.2 39.15 157.9 40.6M93.5 86.55Q96.05 80.45 100.75 75.8 105.45 71.1 111.55 68.5 117.85 65.85 124.75 65.85 131.65 65.85 137.95 68.5 144.05 71.1 148.75 75.8 153.45 80.45 156.05 86.55 158.7 92.9 158.7 99.8 158.7 106.7 156.05 113 153.45 119.1 148.75 123.75 144.05 128.45 137.95 131.05 131.65 133.7 124.75 133.7 117.85 133.7 111.55 131.05 105.45 128.45 100.75 123.75 96.05 119.1 93.5 113 90.8 106.7 90.8 99.8 90.8 92.9 93.5 86.55M100.75 75.8Q96.05 80.45 93.5 86.55 90.8 92.9 90.8 99.8 90.8 106.7 93.5 113 96.05 119.1 100.75 123.75 105.45 128.45 111.55 131.05 117.85 133.7 124.75 133.7 131.65 133.7 137.95 131.05 144.05 128.45 148.75 123.75 153.45 119.1 156.05 113 158.7 106.7 158.7 99.8 158.7 92.9 156.05 86.55 153.45 80.45 148.75 75.8 144.05 71.1 137.95 68.5 131.65 65.85 124.75 65.85 117.85 65.85 111.55 68.5 105.45 71.1 100.75 75.8M97.9 88.45Q100.1 83.2 104.15 79.15 108.2 75.1 113.4 72.9 118.85 70.6 124.75 70.6 130.7 70.6 136.1 72.9 141.3 75.1 145.35 79.15 149.4 83.2 151.6 88.45 153.9 93.85 153.9 99.8 153.9 105.7 151.6 111.15 149.4 116.35 145.35 120.4 141.3 124.45 136.1 126.65 130.7 128.9 124.75 128.9 118.85 128.9 113.4 126.65 108.2 124.45 104.15 120.4 100.1 116.35 97.9 111.15 95.6 105.7 95.6 99.8 95.6 93.85 97.9 88.45M104.15 79.15Q100.1 83.2 97.9 88.45 95.6 93.85 95.6 99.8 95.6 105.7 97.9 111.15 100.1 116.35 104.15 120.4 108.2 124.45 113.4 126.65 118.85 128.9 124.75 128.9 130.7 128.9 136.1 126.65 141.3 124.45 145.35 120.4 149.4 116.35 151.6 111.15 153.9 105.7 153.9 99.8 153.9 93.85 151.6 88.45 149.4 83.2 145.35 79.15 141.3 75.1 136.1 72.9 130.7 70.6 124.75 70.6 118.85 70.6 113.4 72.9 108.2 75.1 104.15 79.15M106.65 81.65Q110.2 78.1 114.8 76.2 119.55 74.15 124.75 74.15 129.95 74.15 134.7 76.2 139.3 78.1 142.85 81.65 146.4 85.2 148.35 89.8 150.35 94.55 150.35 99.8 150.35 105 148.35 109.75 146.4 114.35 142.85 117.9 139.3 121.45 134.7 123.35 129.95 125.4 124.75 125.4 119.55 125.4 114.8 123.35 110.2 121.45 106.65 117.9 103.1 114.35 101.15 109.75 99.15 105 99.15 99.8 99.15 94.55 101.15 89.8 103.1 85.2 106.65 81.65M114.8 76.2Q110.2 78.1 106.65 81.65 103.1 85.2 101.15 89.8 99.15 94.55 99.15 99.8 99.15 105 101.15 109.75 103.1 114.35 106.65 117.9 110.2 121.45 114.8 123.35 119.55 125.4 124.75 125.4 129.95 125.4 134.7 123.35 139.3 121.45 142.85 117.9 146.4 114.35 148.35 109.75 150.35 105 150.35 99.8 150.35 94.55 148.35 89.8 146.4 85.2 142.85 81.65 139.3 78.1 134.7 76.2 129.95 74.15 124.75 74.15 119.55 74.15 114.8 76.2M102.55 90.4Q104.4 86.1 107.7 82.75 111.05 79.4 115.4 77.6 119.85 75.7 124.75 75.7 134.75 75.7 141.8 82.75 145.1 86.1 146.95 90.4 148.85 94.9 148.85 99.8 148.85 104.7 146.95 109.15 145.1 113.45 141.8 116.8 138.45 120.15 134.15 121.95 129.65 123.85 124.75 123.85 119.85 123.85 115.4 121.95 111.05 120.15 107.7 116.8 104.4 113.45 102.55 109.15 100.65 104.7 100.65 99.8 100.65 94.9 102.55 90.4M107.7 82.75Q104.4 86.1 102.55 90.4 100.65 94.9 100.65 99.8 100.65 104.7 102.55 109.15 104.4 113.45 107.7 116.8 111.05 120.15 115.4 121.95 119.85 123.85 124.75 123.85 129.65 123.85 134.15 121.95 138.45 120.15 141.8 116.8 145.1 113.45 146.95 109.15 148.85 104.7 148.85 99.8 148.85 94.9 146.95 90.4 145.1 86.1 141.8 82.75 134.75 75.7 124.75 75.7 119.85 75.7 115.4 77.6 111.05 79.4 107.7 82.75M118.35 95.15L119.55 93.8 127 93.8Q127.45 93.8 127.6 94.2 127.8 94.6 127.5 94.95L119 103.95 127.25 103.95 124.5 100.9 125.5 100 129.25 104.15Q129.55 104.5 129.4 104.9 129.2 105.3 128.75 105.3L117.45 105.3Q117 105.3 116.85 104.9 116.65 104.45 116.95 104.15L125.45 95.15 118.35 95.15Z"/><path fill="#C8C8C8" stroke="none" d="M138.1 241.45Q131.6 242.15 125.4 242.15 118.6 242.15 111.4 241.3L110.1 249Q117.9 249.95 125.4 249.95 132.45 249.95 139.4 249.2L138.1 241.45M237.85 131.15Q234.4 129.35 229.8 127.75 223.5 125.6 216.2 124.3 206.65 122.6 196.15 122.6L163.75 122.6Q161.3 122.4 158.35 123.1 152.65 124.5 148.2 128.9 143.6 133.55 136.05 135.55 130.75 136.95 124.75 136.95 118.7 136.95 113.45 135.55 105.85 133.55 101.25 128.9 96.85 124.5 91.1 123.1 88.2 122.4 85.75 122.6L53.3 122.6Q42.85 122.6 33.25 124.3 25.95 125.6 19.7 127.75 15.05 129.35 11.6 131.1 9.914 131.966 9 132.6 8.983 132.625 8.95 132.65L9.05 133.7Q9.071 133.686 9.1 133.65 10.042 133.078 11.85 132.15 15.5 130.25 20.05 128.65 26.3 126.55 33.5 125.3 42.95 123.6 53.3 123.6L87.2 123.6Q88.9 123.65 90.65 124.1 96.3 125.4 100.55 129.65 105.35 134.45 113.1 136.5 118.55 137.95 124.75 137.95 130.95 137.95 136.35 136.5 144.15 134.45 148.95 129.65 153.2 125.4 158.8 124.1 161.65 123.45 163.65 123.6L196.15 123.6Q206.5 123.6 216 125.3 223.15 126.55 229.4 128.65 233.95 130.25 237.65 132.15 239.459 133.079 240.4 133.65L240.45 133.7 240.55 132.7Q240.515 132.676 240.45 132.65 239.535 132.016 237.85 131.15M119.55 93.8L118.35 95.15 125.45 95.15 116.95 104.15Q116.65 104.45 116.85 104.9 117 105.3 117.45 105.3L128.75 105.3Q129.2 105.3 129.4 104.9 129.55 104.5 129.25 104.15L125.5 100 124.5 100.9 127.25 103.95 119 103.95 127.5 94.95Q127.8 94.6 127.6 94.2 127.45 93.8 127 93.8L119.55 93.8M159.95 41.9Q160.1 41.75 157.9 40.6 155.2 39.15 151.45 37.85 139.85 33.95 124.75 33.95 109.75 33.95 98.15 37.95 94.5 39.2 91.65 40.65L89.5 41.9Q89.6 41.9 95.5 39.75 103.05 37.3 111.15 36.1 137.1 32.2 159.95 41.9M144 38.05Q143.25 37.75 141.8 37.45 138.95 36.85 135.65 36.85L113.85 36.85Q110.55 36.85 107.7 37.45L105.5 38.05 100.95 40.15Q102.95 44.5 106.75 45.8 108.65 46.4 110.1 46.2L140.35 46.25Q141.55 46.2 142.75 45.8 146.55 44.5 148.55 40.15L144 38.05Z"/><path id="Layer5_0_1_STROKES" stroke="#C8C8C8" stroke-width="3" stroke-linejoin="miter" stroke-linecap="butt" stroke-miterlimit="10" fill="none" d="M9.025 132.6Q8.8 129.000 8.8 125.35 8.8 101.75 17.9 80.2 26.7 59.4 42.75 43.35 58.8 27.3 79.6 18.5 101.15 9.4 124.75 9.4 148.35 9.4 169.9 18.5 190.7 27.3 206.75 43.35 222.8 59.4 231.6 80.2 240.7 101.75 240.7 125.35 240.7 129.025 240.475 132.65M240.4 133.675Q239.082 152.781 231.6 170.5 222.8 191.3 206.75 207.35 190.7 223.4 169.9 232.2 148.35 241.35 124.75 241.35 101.15 241.35 79.6 232.2 58.8 223.4 42.75 207.35 26.7 191.3 17.9 170.5 10.417 152.780 9.1 133.675"/><path id="Layer5_0_2_STROKES" stroke="#C8C8C8" stroke-width="1" stroke-linejoin="miter" stroke-linecap="butt" stroke-miterlimit="10" fill="none" d="M248.2 146.2Q248.65 143.95 248.2 141.15 247.3 135.55 243 132.8 242.9 132.65 243 127L247.7 130.6 248.6 131.1Q249.6 131.3 249.95 129.8 250 127.964 250 125.35 250 99.85 240.15 76.6 230.65 54.1 213.3 36.75 196 19.45 173.5 9.9 150.25 .05 124.75 .05 99.25 .05 76 9.9 53.5 19.45 36.15 36.75 18.85 54.1 9.3 76.6 -.55 99.85 -.55 125.35 -.55 128.15 -.45 130.15 -.05 131.2 .85 130.9 1.3 130.8 1.65 130.45L6.35 126.85Q6.4 132.5 6.35 132.65 2.75 134.95 1.5 139.2 .75 141.95 1 145 4.5 167.15 15.55 186.75 26.3 205.85 42.95 220.25 59.75 234.75 80.35 242.55 101.7 250.65 124.75 250.65 147.65 250.65 168.9 242.65 189.4 234.9 206.15 220.6 222.75 206.35 233.6 187.4 244.65 168 248.3 146L248.2 146.2ZM158.7 99.8Q158.7 106.7 156.05 113 153.45 119.1 148.75 123.75 144.05 128.45 137.95 131.05 131.65 133.7 124.75 133.7 117.85 133.7 111.55 131.05 105.45 128.45 100.75 123.75 96.05 119.1 93.5 113 90.8 106.7 90.8 99.8 90.8 92.9 93.5 86.55 96.05 80.45 100.75 75.8 105.45 71.1 111.55 68.5 117.85 65.85 124.75 65.85 131.65 65.85 137.95 68.5 144.05 71.1 148.75 75.8 153.45 80.45 156.05 86.55 158.7 92.9 158.7 99.8ZM150.35 99.8Q150.35 105 148.35 109.75 146.4 114.35 142.85 117.9 139.3 121.45 134.7 123.35 129.95 125.4 124.75 125.4 119.55 125.4 114.8 123.35 110.2 121.45 106.65 117.9 103.1 114.35 101.15 109.75 99.15 105 99.15 99.8 99.15 94.55 101.15 89.8 103.1 85.2 106.65 81.65 110.2 78.1 114.8 76.2 119.55 74.15 124.75 74.15 129.95 74.15 134.7 76.2 139.3 78.1 142.85 81.65 146.4 85.2 148.35 89.8 150.35 94.55 150.35 99.8ZM148.85 99.8Q148.85 104.7 146.95 109.15 145.1 113.45 141.8 116.8 138.45 120.15 134.15 121.95 129.65 123.85 124.75 123.85 119.85 123.85 115.4 121.95 111.05 120.15 107.7 116.8 104.4 113.45 102.55 109.15 100.65 104.7 100.65 99.8 100.65 94.9 102.55 90.4 104.4 86.1 107.7 82.75 111.05 79.4 115.4 77.6 119.85 75.7 124.75 75.7 134.75 75.7 141.8 82.75 145.1 86.1 146.95 90.4 148.85 94.9 148.85 99.8ZM153.9 99.8Q153.9 105.7 151.6 111.15 149.4 116.35 145.35 120.4 141.3 124.45 136.1 126.65 130.7 128.9 124.75 128.9 118.85 128.9 113.4 126.65 108.2 124.45 104.15 120.4 100.1 116.35 97.9 111.15 95.6 105.7 95.6 99.8 95.6 93.85 97.9 88.45 100.1 83.2 104.15 79.15 108.2 75.1 113.4 72.9 118.85 70.6 124.75 70.6 130.7 70.6 136.1 72.9 141.3 75.1 145.35 79.15 149.4 83.2 151.6 88.45 153.9 93.85 153.9 99.8Z"/></g><g id="Symbol-6" overflow="visible"><path fill="#FFF" stroke="none" d="M2078.65 76.65Q2068.65 54.15 2050.6 36.75 2032.45 19.4 2008.95 9.85 1984.65 0 1958.05 0L125.55 .05Q100 .05 76.7 9.9 54.15 19.45 36.8 36.8 19.45 54.15 9.9 76.65 .05 99.95 .05 125.5L.05 125.55Q.05 151.1 9.9 174.4 19.45 196.9 36.8 214.3 54.15 231.65 76.7 241.2 100 251.05 125.55 251.05L1958.05 251Q1984.65 251 2008.95 241.15 2032.45 231.65 2050.6 214.25 2068.65 196.9 2078.65 174.4 2088.9 151.1 2088.9 125.55L2088.9 125.5Q2088.9 99.95 2078.65 76.65Z"/></g></defs><g id="Scene-1" overflow="visible"><path fill="#F3F3F3" stroke="none" d="M2652.65 1560.4L2652.65 -64 -64.05 -64 -64.05 1560.4 2652.65 1560.4Z"/><g display="none"><use xlink:href="#Symbol-6" transform="translate(985.7 215.9)"><animateTransform attributeName="transform" additive="replace" type="translate" repeatCount="indefinite" dur="13.917s" keyTimes="0;.208;.268;1" values="-907.1,215.9;-907.1,215.9;985.7,215.9;985.7,215.9" keySplines=".25 .5 .5 1;.25 .5 .5 1;.1 .1 .9 .9" calcMode="spline"/></use><animate attributeName="display" repeatCount="indefinite" dur="13.917s" keyTimes="0;.208;.485;1" values="none;inline;none;none"/><animate attributeName="mask" repeatCount="indefinite" dur="13.917s" keyTimes="0;.208;.485;1" values="none;url(#mask_10);none;none"/></g><mask id="mask_10"><g filter="url(#filter1)"><g display="none"><use xlink:href="#Symbol-6" transform="translate(985.7 215.9)"/><animate attributeName="display" repeatCount="indefinite" dur="13.917s" keyTimes="0;.208;.485;1" values="none;inline;none;none"/></g></g></mask><g display="none"><use xlink:href="#naname" transform="translate(642.15 215.9)"><animateTransform attributeName="transform" additive="replace" type="translate" repeatCount="indefinite" dur="13.917s" keyTimes="0;.165;.208;1" values="286.9,709.85;286.9,709.85;642.15,215.9;642.15,215.9" keySplines=".25 .5 .5 1;.25 .5 .5 1;.1 .1 .9 .9" calcMode="spline"/></use><animate attributeName="display" repeatCount="indefinite" dur="13.917s" keyTimes="0;.165;.485;1" values="none;inline;none;none"/><animate attributeName="mask" repeatCount="indefinite" dur="13.917s" keyTimes="0;.165;.485;1" values="none;url(#mask_9);none;none"/></g><mask id="mask_9"><g filter="url(#filter1)"><g display="none"><use xlink:href="#naname" transform="translate(642.15 215.9)"/><animate attributeName="display" repeatCount="indefinite" dur="13.917s" keyTimes="0;.165;.485;1" values="none;inline;none;none"/></g></g></mask><g display="none"><use xlink:href="#Symbol-5" transform="matrix(1.028 0 0 1 915.35 910.9)"><animateTransform attributeName="transform" additive="replace" type="translate" repeatCount="indefinite" dur="13.917s" keyTimes="0;.035;.083;1" values="2461.187,910.9;2461.187,910.9;915.287,910.9;915.287,910.9" keySplines=".25 .5 .5 1;.25 .5 .5 1;.1 .1 .9 .9" calcMode="spline"/><animateTransform attributeName="transform" additive="sum" type="scale" repeatCount="indefinite" dur="13.917s" keyTimes="0;1" values="1.028,1;1.028,1" keySplines=".25 .5 .5 1" calcMode="spline"/></use><animate attributeName="display" repeatCount="indefinite" dur="13.917s" keyTimes="0;.035;.485;1" values="none;inline;none;none"/></g><g display="none"><use xlink:href="#Symbol-5" transform="translate(-1268.2 33.85)"><animateTransform attributeName="transform" additive="replace" type="translate" repeatCount="indefinite" dur="13.917s" keyTimes="0;.059;1" values="-1268.252,159.35;-1268.2,159.35;-1268.2,159.35" keySplines=".25 .5 .5 1;.1 .1 .9 .9" calcMode="spline"/><animateTransform attributeName="transform" additive="sum" type="scale" repeatCount="indefinite" dur="13.917s" keyTimes="0;.059;1" values=".607,1;1,1;1,1" keySplines=".25 .5 .5 1;.1 .1 .9 .9" calcMode="spline"/><animateTransform attributeName="transform" additive="sum" type="translate" repeatCount="indefinite" dur="13.917s" keyTimes="0;.059;1" values=".25,-125.5;0,-125.5;0,-125.5" keySplines=".25 .5 .5 1;.1 .1 .9 .9" calcMode="spline"/></use><animate attributeName="display" repeatCount="indefinite" dur="13.917s" keyTimes="0;.485;1" values="inline;none;none"/></g><g display="none"><use xlink:href="#Symbol-6" transform="translate(-1204.15 709.85)"><animateTransform attributeName="transform" additive="replace" type="translate" repeatCount="indefinite" dur="13.917s" keyTimes="0;.107;.165;1" values="-2020.65,709.85;-2020.65,709.85;-1204.15,709.85;-1204.15,709.85" keySplines=".25 .5 .5 1;.25 .5 .5 1;.1 .1 .9 .9" calcMode="spline"/></use><animate attributeName="display" repeatCount="indefinite" dur="13.917s" keyTimes="0;.107;.485;1" values="none;inline;none;none"/></g><g display="none"><use xlink:href="#stone" transform="matrix(-.005 1 -1 -.005 2925.9 215.9)"><animateTransform attributeName="transform" additive="replace" type="translate" repeatCount="indefinite" dur="13.917s" keyTimes="0;.165;.269;.283;.382;.396;.484;1" values="-138.746,834.904;-138.746,834.904;766.904,834.854;766.867,834.8;1115.517,340.2;1115.531,340.312;2800.181,340.312;2800.181,340.312" keySplines=".253 .5 .505 1;.253 .5 .505 1;.25 .5 .5 1;.25 .5 .5 1;.25 .5 .5 1;.25 .5 .5 1;.1 .1 .9 .9" calcMode="spline"/><animateTransform attributeName="transform" additive="sum" type="rotate" repeatCount="indefinite" dur="13.917s" keyTimes="0;.269;.283;.382;.396;1" values="89.995,0,0;89.995,0,0;37.077,0,0;37.077,0,0;90.309,0,0;90.309,0,0" keySplines=".253 .5 .505 1;.25 .5 .5 1;.25 .5 .5 1;.25 .5 .5 1;.25 .5 .5 1" calcMode="spline"/><animateTransform attributeName="transform" additive="sum" type="scale" repeatCount="indefinite" dur="13.917s" keyTimes="0;.269;.283;.382;.396;1" values="1,1;1,1;.997,.997;.997,.997;1,1;1,1" keySplines=".253 .5 .505 1;.25 .5 .5 1;.25 .5 .5 1;.25 .5 .5 1;.25 .5 .5 1" calcMode="spline"/><animateTransform attributeName="transform" additive="sum" type="translate" repeatCount="indefinite" dur="13.917s" keyTimes="0;.165;.269;.283;.382;.396;.484;1" values="-125.1,-125.1;-125.1,-125.1;-125.05,-124.95;-125.15,-125.1;-125.1,-124.95;-125.15,-125.05;-125.1,-125.05;-125.1,-125.05" keySplines=".253 .5 .505 1;.253 .5 .505 1;.25 .5 .5 1;.25 .5 .5 1;.25 .5 .5 1;.25 .5 .5 1;.1 .1 .9 .9" calcMode="spline"/></use><animate attributeName="display" repeatCount="indefinite" dur="13.917s" keyTimes="0;.165;.485;1" values="none;inline;none;none"/></g><g display="none"><use xlink:href="#Symbol-6" transform="translate(889.65 709.85)"><animateTransform attributeName="transform" additive="replace" type="translate" repeatCount="indefinite" dur="13.917s" keyTimes="0;.50699;.554;1" values="-1204.15,709.85;-1204.15,709.85;889.65,709.85;889.65,709.85" keySplines=".1 .1 .9 .9;.25 .5 .5 1;.1 .1 .9 .9" calcMode="spline"/></use><animate attributeName="display" repeatCount="indefinite" dur="13.917s" keyTimes="0;.484;.556;1" values="none;inline;none;none"/><animate attributeName="mask" repeatCount="indefinite" dur="13.917s" keyTimes="0;.507;.556;1" values="none;url(#mask_8);none;none"/></g><mask id="mask_8"><g filter="url(#filter1)"><g display="none"><use xlink:href="#Symbol-6" transform="translate(-1204.15 709.85)"/><animate attributeName="display" repeatCount="indefinite" dur="13.917s" keyTimes="0;.507;.556;1" values="none;inline;none;none"/></g></g></mask><g display="none"><use xlink:href="#naname" transform="translate(1133.15 -481.45)"><animateTransform attributeName="transform" additive="replace" type="translate" repeatCount="indefinite" dur="13.917s" keyTimes="0;.55399;.59;1" values="642.15,215.9;642.15,215.9;1133.15,-481.45;1133.15,-481.45" keySplines=".1 .1 .9 .9;.25 .5 .5 1;.1 .1 .9 .9" calcMode="spline"/></use><animate attributeName="display" repeatCount="indefinite" dur="13.917s" keyTimes="0;.484;.592;1" values="none;inline;none;none"/><animate attributeName="mask" repeatCount="indefinite" dur="13.917s" keyTimes="0;.554;.592;1" values="none;url(#mask_7);none;none"/></g><mask id="mask_7"><g filter="url(#filter1)"><g display="none"><use xlink:href="#naname" transform="translate(642.15 215.9)"/><animate attributeName="display" repeatCount="indefinite" dur="13.917s" keyTimes="0;.554;.592;1" values="none;inline;none;none"/></g></g></mask><g display="none"><use xlink:href="#Symbol-6" transform="translate(2553.45 215.9)"><animateTransform attributeName="transform" additive="replace" type="translate" repeatCount="indefinite" dur="13.917s" keyTimes="0;.58999;.632;1" values="985.7,215.9;985.7,215.9;2553.45,215.9;2553.45,215.9" keySplines=".1 .1 .9 .9;.25 .5 .5 1;.1 .1 .9 .9" calcMode="spline"/></use><animate attributeName="display" repeatCount="indefinite" dur="13.917s" keyTimes="0;.484;.634;1" values="none;inline;none;none"/><animate attributeName="mask" repeatCount="indefinite" dur="13.917s" keyTimes="0;.59;.634;1" values="none;url(#mask_6);none;none"/></g><mask id="mask_6"><g filter="url(#filter1)"><g display="none"><use xlink:href="#Symbol-6" transform="translate(985.7 215.9)"/><animate attributeName="display" repeatCount="indefinite" dur="13.917s" keyTimes="0;.59;.634;1" values="none;inline;none;none"/></g></g></mask><g display="none"><use xlink:href="#Symbol-5" transform="translate(-2093.65 33.85)"><animateTransform attributeName="transform" additive="replace" type="translate" repeatCount="indefinite" dur="13.917s" keyTimes="0;.57199;.62;1" values="-1268.2,33.85;-1268.2,33.85;-2093.65,33.85;-2093.65,33.85" keySplines=".1 .1 .9 .9;.25 .5 .5 1;.1 .1 .9 .9" calcMode="spline"/></use><animate attributeName="display" repeatCount="indefinite" dur="13.917s" keyTimes="0;.484;.873;1" values="none;inline;none;none"/></g><g display="none"><use xlink:href="#Symbol-5" transform="matrix(1.028 0 0 1 2573.3 910.9)"><animateTransform attributeName="transform" additive="replace" type="translate" repeatCount="indefinite" dur="13.917s" keyTimes="0;.61399;.65;1" values="915.287,910.9;915.287,910.9;2573.237,910.9;2573.237,910.9" keySplines=".1 .1 .9 .9;.25 .5 .5 1;.1 .1 .9 .9" calcMode="spline"/><animateTransform attributeName="transform" additive="sum" type="scale" repeatCount="indefinite" dur="13.917s" keyTimes="0;1" values="1.028,1;1.028,1" keySplines=".1 .1 .9 .9" calcMode="spline"/></use><animate attributeName="display" repeatCount="indefinite" dur="13.917s" keyTimes="0;.484;.873;1" values="none;inline;none;none"/></g><g display="none"><use xlink:href="#Symbol-4" transform="translate(181.15 -188.45)"><animateTransform attributeName="transform" additive="replace" type="translate" repeatCount="indefinite" dur="13.917s" keyTimes="0;.584;.626;1" values="930.05,-1261.15;930.05,-1261.15;181.15,-188.45;181.15,-188.45" keySplines=".25 .5 .5 1;.25 .5 .5 1;.1 .1 .9 .9" calcMode="spline"/></use><animate attributeName="display" repeatCount="indefinite" dur="13.917s" keyTimes="0;.584;.873;1" values="none;inline;none;none"/><animate attributeName="mask" repeatCount="indefinite" dur="13.917s" keyTimes="0;.584;.628;1" values="none;url(#mask_5);none;none"/></g><mask id="mask_5"><g filter="url(#filter1)"><g display="none"><use xlink:href="#Symbol-4" transform="translate(181.15 -188.45)"/><animate attributeName="display" repeatCount="indefinite" dur="13.917s" keyTimes="0;.584;.628;1" values="none;inline;none;none"/></g></g></mask><g display="none"><use xlink:href="#Symbol-5" transform="matrix(1.028 0 0 1 192.9 787.85)"><animateTransform attributeName="transform" additive="replace" type="translate" repeatCount="indefinite" dur="13.917s" keyTimes="0;.626;.686;1" values="-1751.513,787.85;-1751.513,787.85;192.837,787.85;192.837,787.85" keySplines=".253 .5 .505 1;.253 .5 .505 1;.1 .1 .9 .9" calcMode="spline"/><animateTransform attributeName="transform" additive="sum" type="scale" repeatCount="indefinite" dur="13.917s" keyTimes="0;1" values="1.028,1;1.028,1" keySplines=".253 .5 .505 1" calcMode="spline"/></use><animate attributeName="display" repeatCount="indefinite" dur="13.917s" keyTimes="0;.626;.873;1" values="none;inline;none;none"/><animate attributeName="mask" repeatCount="indefinite" dur="13.917s" keyTimes="0;.626;.687;1" values="none;url(#mask_4);none;none"/></g><mask id="mask_4"><g filter="url(#filter1)"><g display="none"><use xlink:href="#Symbol-5" transform="matrix(1.028 0 0 1 192.9 787.85)"/><animate attributeName="display" repeatCount="indefinite" dur="13.917s" keyTimes="0;.626;.687;1" values="none;inline;none;none"/></g></g></mask><g display="none"><use xlink:href="#Symbol-4" transform="translate(1403.9 787.85)"><animateTransform attributeName="transform" additive="replace" type="translate" repeatCount="indefinite" dur="13.917s" keyTimes="0;.686;.722;1" values="2229.35,-384.5;2229.35,-384.5;1403.9,787.85;1403.9,787.85" keySplines=".25 .5 .5 1;.25 .5 .5 1;.1 .1 .9 .9" calcMode="spline"/></use><animate attributeName="display" repeatCount="indefinite" dur="13.917s" keyTimes="0;.686;.873;1" values="none;inline;none;none"/><animate attributeName="mask" repeatCount="indefinite" dur="13.917s" keyTimes="0;.686;.873;1" values="none;url(#mask_3);none;none"/></g><mask id="mask_3"><g filter="url(#filter1)"><g display="none"><use xlink:href="#Symbol-4" transform="translate(1403.9 787.85)"/><animate attributeName="display" repeatCount="indefinite" dur="13.917s" keyTimes="0;.686;.873;1" values="none;inline;none;none"/></g></g></mask><g display="none"><use xlink:href="#naname" transform="translate(1620.5 -209.55)"><animateTransform attributeName="transform" additive="replace" type="translate" repeatCount="indefinite" dur="13.917s" keyTimes="0;.698;.728;1" values="1999.4,-745;1999.4,-745;1620.5,-209.55;1620.5,-209.55" keySplines=".25 .5 .5 1;.25 .5 .5 1;.1 .1 .9 .9" calcMode="spline"/></use><animate attributeName="display" repeatCount="indefinite" dur="13.917s" keyTimes="0;.698;.873;1" values="none;inline;none;none"/></g><g display="none"><use xlink:href="#stone" transform="matrix(-.803 -.596 .596 -.803 1840.3 1625.75)"><animateTransform attributeName="transform" additive="replace" type="translate" repeatCount="indefinite" dur="13.917s" keyTimes="0;.638;.697;.707;.793;.8;.842;1" values="1031.821,-125.635;1031.821,-125.635;306.946,915.058;307.037,915.053;2214.736,913.653;2214.652,913.593;1814.402,1450.893;1814.402,1450.893" keySplines=".25 .5 .5 1;.25 .5 .5 1;.25 .5 .5 1;.25 .5 .5 1;.253 .5 .505 1;.25 .5 .5 1;.1 .1 .9 .9" calcMode="spline"/><animateTransform attributeName="transform" additive="sum" type="rotate" repeatCount="indefinite" dur="13.917s" keyTimes="0;.697;.707;.793;.8;1" values="-149.69,0,0;-149.69,0,0;-269.691,0,0;-269.691,0,0;-143.406,0,0;-143.406,0,0" keySplines=".25 .5 .5 1;.25 .5 .5 1;.25 .5 .5 1;.253 .5 .505 1;.25 .5 .5 1" calcMode="spline"/><animateTransform attributeName="transform" additive="sum" type="scale" repeatCount="indefinite" dur="13.917s" keyTimes="0;.697;.707;.793;.8;1" values="1,.999;1,.999;1,1;1,1;.998,.998;.998,.998" keySplines=".25 .5 .5 1;.25 .5 .5 1;.25 .5 .5 1;.253 .5 .505 1;.25 .5 .5 1" calcMode="spline"/><animateTransform attributeName="transform" additive="sum" type="translate" repeatCount="indefinite" dur="13.917s" keyTimes="0;.638;.697;.707;.793;.8;.842;1" values="-125,-125.05;-125,-125.05;-125,-125;-125.15,-124.9;-125.2,-124.95;-125.05,-125;-125.1,-124.9;-125.1,-124.9" keySplines=".25 .5 .5 1;.25 .5 .5 1;.25 .5 .5 1;.25 .5 .5 1;.253 .5 .505 1;.25 .5 .5 1;.1 .1 .9 .9" calcMode="spline"/></use><animate attributeName="display" repeatCount="indefinite" dur="13.917s" keyTimes="0;.638;.873;1" values="none;inline;none;none"/></g><g display="none"><use xlink:href="#Symbol-4" transform="translate(2250.7 -396.9)"><animateTransform attributeName="transform" additive="replace" type="translate" repeatCount="indefinite" dur="13.917s" keyTimes="0;.873;.909;1" values="1403.9,787.85;1403.9,787.85;2250.7,-396.9;2250.7,-396.9" keySplines=".25 .5 .5 1;.25 .5 .5 1;.1 .1 .9 .9" calcMode="spline"/></use><animate attributeName="display" repeatCount="indefinite" dur="13.917s" keyTimes="0;.873;.91;1" values="none;inline;none;none"/><animate attributeName="mask" repeatCount="indefinite" dur="13.917s" keyTimes="0;.873;.91;1" values="none;url(#mask_2);none;none"/></g><mask id="mask_2"><g filter="url(#filter1)"><g display="none"><use xlink:href="#Symbol-4" transform="translate(1403.9 787.85)"/><animate attributeName="display" repeatCount="indefinite" dur="13.917s" keyTimes="0;.873;.91;1" values="none;inline;none;none"/></g></g></mask><g display="none"><use xlink:href="#Symbol-5" transform="matrix(1.028 0 0 1 -1879.6 787.85)"><animateTransform attributeName="transform" additive="replace" type="translate" repeatCount="indefinite" dur="13.917s" keyTimes="0;.90899;.939;1" values="192.837,787.85;192.837,787.85;-1879.613,787.85;-1879.613,787.85" keySplines=".1 .1 .9 .9;.25 .5 .5 1;.1 .1 .9 .9" calcMode="spline"/><animateTransform attributeName="transform" additive="sum" type="scale" repeatCount="indefinite" dur="13.917s" keyTimes="0;1" values="1.028,1;1.028,1" keySplines=".1 .1 .9 .9" calcMode="spline"/></use><animate attributeName="display" repeatCount="indefinite" dur="13.917s" keyTimes="0;.873;.94;1" values="none;inline;none;none"/><animate attributeName="mask" repeatCount="indefinite" dur="13.917s" keyTimes="0;.909;.94;1" values="none;url(#mask_1);none;none"/></g><mask id="mask_1"><g filter="url(#filter1)"><g display="none"><use xlink:href="#Symbol-5" transform="matrix(1.028 0 0 1 192.9 787.85)"/><animate attributeName="display" repeatCount="indefinite" dur="13.917s" keyTimes="0;.909;.94;1" values="none;inline;none;none"/></g></g></mask><g display="none"><use xlink:href="#Symbol-4" transform="translate(909.35 -1227.35)"><animateTransform attributeName="transform" additive="replace" type="translate" repeatCount="indefinite" dur="13.917s" keyTimes="0;.93899;.963;1" values="181.15,-188.45;181.15,-188.45;909.35,-1227.35;909.35,-1227.35" keySplines=".1 .1 .9 .9;.25 .5 .5 1;.1 .1 .9 .9" calcMode="spline"/></use><animate attributeName="display" repeatCount="indefinite" dur="13.917s" keyTimes="0;.873;.964;1" values="none;inline;none;none"/><animate attributeName="mask" repeatCount="indefinite" dur="13.917s" keyTimes="0;.939;.964;1" values="none;url(#mask_);none;none"/></g><mask id="mask_"><g filter="url(#filter1)"><g display="none"><use xlink:href="#Symbol-4" transform="translate(181.15 -188.45)"/><animate attributeName="display" repeatCount="indefinite" dur="13.917s" keyTimes="0;.939;.964;1" values="none;inline;none;none"/></g></g></mask><g display="none"><use xlink:href="#naname" transform="translate(1992.6 -745)"><animateTransform attributeName="transform" additive="replace" type="translate" repeatCount="indefinite" dur="13.917s" keyTimes="0;.95099;.969;1" values="1620.5,-209.55;1620.5,-209.55;1992.6,-745;1992.6,-745" keySplines=".1 .1 .9 .9;.253 .5 .505 1;.1 .1 .9 .9" calcMode="spline"/></use><animate attributeName="display" repeatCount="indefinite" dur="13.917s" keyTimes="0;.873;.97;1" values="none;inline;none;none"/></g></g></svg>